<svg xmlns="http://www.w3.org/2000/svg" width="820" height="220" viewBox="0 0 820 220">
  <defs>
    <linearGradient id="bg4" x1="0%" y1="0%" x2="100%" y2="100%">
      <stop offset="0%" style="stop-color:#111110"/>
      <stop offset="100%" style="stop-color:#1c1b18"/>
    </linearGradient>
  </defs>
  <rect width="820" height="220" fill="url(#bg4)"/>
  <!-- Large heading block -->
  <rect x="40" y="36" width="340" height="40" rx="5" fill="#ffffff" fill-opacity="0.1"/>
  <rect x="40" y="86" width="260" height="24" rx="4" fill="#e83e0b" fill-opacity="0.15"/>
  <rect x="40" y="120" width="300" height="14" rx="3" fill="#ffffff" fill-opacity="0.05"/>
  <rect x="40" y="142" width="240" height="14" rx="3" fill="#ffffff" fill-opacity="0.05"/>
  <!-- CTA pill -->
  <rect x="40" y="170" width="130" height="36" rx="18" fill="#ffffff" fill-opacity="0.08" stroke="#ffffff" stroke-opacity="0.12" stroke-width="1"/>
  <rect x="184" y="170" width="100" height="36" rx="18" fill="#e83e0b" fill-opacity="0.15" stroke="#e83e0b" stroke-opacity="0.25" stroke-width="1"/>
  <!-- Right - abstract image placeholder -->
  <rect x="460" y="24" width="320" height="172" rx="14" fill="#ffffff" fill-opacity="0.03" stroke="#ffffff" stroke-opacity="0.07" stroke-width="1"/>
  <!-- Inner image stubs -->
  <rect x="476" y="40" width="288" height="120" rx="8" fill="#ffffff" fill-opacity="0.04"/>
  <rect x="476" y="40" width="288" height="120" rx="8" fill="none" stroke="#e83e0b" stroke-opacity="0.1" stroke-width="1"/>
  <!-- Nav dots on image -->
  <circle cx="596" cy="176" r="4" fill="#e83e0b" fill-opacity="0.8"/>
  <circle cx="612" cy="176" r="3" fill="#ffffff" fill-opacity="0.2"/>
  <circle cx="626" cy="176" r="3" fill="#ffffff" fill-opacity="0.2"/>
</svg>
