<svg xmlns="http://www.w3.org/2000/svg" width="820" height="220" viewBox="0 0 820 220">
  <defs>
    <linearGradient id="bg2" x1="0%" y1="0%" x2="100%" y2="100%">
      <stop offset="0%" style="stop-color:#0d0f14"/>
      <stop offset="100%" style="stop-color:#111318"/>
    </linearGradient>
  </defs>
  <rect width="820" height="220" fill="url(#bg2)"/>
  <!-- Token swatches -->
  <rect x="40" y="30" width="44" height="44" rx="8" fill="#e83e0b"/>
  <rect x="94" y="30" width="44" height="44" rx="8" fill="#ff6b35"/>
  <rect x="148" y="30" width="44" height="44" rx="8" fill="#ffd4c2"/>
  <rect x="202" y="30" width="44" height="44" rx="8" fill="#1a1a16"/>
  <rect x="256" y="30" width="44" height="44" rx="8" fill="#f5f0e8" fill-opacity="0.9"/>
  <!-- Component preview boxes -->
  <rect x="40" y="100" width="180" height="36" rx="18" fill="#e83e0b" fill-opacity="0.9"/>
  <rect x="234" y="100" width="180" height="36" rx="18" fill="none" stroke="#e83e0b" stroke-opacity="0.5" stroke-width="1.5"/>
  <rect x="428" y="100" width="180" height="36" rx="18" fill="#ffffff" fill-opacity="0.06" stroke="#ffffff" stroke-opacity="0.1" stroke-width="1"/>
  <!-- Typography scale -->
  <rect x="40" y="155" width="320" height="20" rx="3" fill="#ffffff" fill-opacity="0.12"/>
  <rect x="40" y="183" width="220" height="14" rx="3" fill="#ffffff" fill-opacity="0.07"/>
  <rect x="40" y="204" width="160" height="10" rx="3" fill="#ffffff" fill-opacity="0.04"/>
  <!-- Icon grid -->
  <rect x="640" y="30" width="36" height="36" rx="6" fill="#ffffff" fill-opacity="0.04" stroke="#ffffff" stroke-opacity="0.08" stroke-width="1"/>
  <rect x="686" y="30" width="36" height="36" rx="6" fill="#ffffff" fill-opacity="0.04" stroke="#ffffff" stroke-opacity="0.08" stroke-width="1"/>
  <rect x="732" y="30" width="36" height="36" rx="6" fill="#e83e0b" fill-opacity="0.14" stroke="#e83e0b" stroke-opacity="0.2" stroke-width="1"/>
  <rect x="640" y="76" width="36" height="36" rx="6" fill="#ffffff" fill-opacity="0.04" stroke="#ffffff" stroke-opacity="0.08" stroke-width="1"/>
  <rect x="686" y="76" width="36" height="36" rx="6" fill="#ffffff" fill-opacity="0.04" stroke="#ffffff" stroke-opacity="0.08" stroke-width="1"/>
  <rect x="732" y="76" width="36" height="36" rx="6" fill="#ffffff" fill-opacity="0.04" stroke="#ffffff" stroke-opacity="0.08" stroke-width="1"/>
  <!-- Sidebar rail -->
  <rect x="630" y="120" width="4" height="80" rx="2" fill="#e83e0b" fill-opacity="0.3"/>
  <rect x="645" y="126" width="120" height="10" rx="2" fill="#ffffff" fill-opacity="0.1"/>
  <rect x="645" y="144" width="90" height="8" rx="2" fill="#ffffff" fill-opacity="0.06"/>
  <rect x="645" y="160" width="110" height="8" rx="2" fill="#ffffff" fill-opacity="0.06"/>
  <rect x="645" y="176" width="70" height="8" rx="2" fill="#e83e0b" fill-opacity="0.4"/>
</svg>
